<?xml version="1.0" encoding="UTF-8"?>
<svg id="Layer_1" data-name="Layer 1" xmlns="http://www.w3.org/2000/svg" xmlns:xlink="http://www.w3.org/1999/xlink" viewBox="0 0 98.29 61.78">
  <defs>
    <style>
      .cls-1 {
        fill: #fff;
      }

      .cls-1, .cls-2, .cls-3 {
        stroke-linecap: round;
        stroke-linejoin: round;
      }

      .cls-1, .cls-2, .cls-3, .cls-4 {
        stroke: #000;
      }

      .cls-1, .cls-3 {
        stroke-width: 4.93px;
      }

      .cls-2 {
        stroke-width: 3.7px;
      }

      .cls-2, .cls-3, .cls-5, .cls-4 {
        fill: none;
      }

      .cls-5 {
        stroke-width: 0px;
      }

      .cls-4 {
        stroke-miterlimit: 10;
        stroke-width: 1.23px;
      }

      .cls-6 {
        clip-path: url(#clippath);
      }
    </style>
    <clipPath id="clippath">
      <rect class="cls-5" width="98.29" height="61.78"/>
    </clipPath>
  </defs>
  <g class="cls-6">
    <g id="Group_8" data-name="Group 8">
      <path id="Path_9" data-name="Path 9" class="cls-3" d="m64.36,3.38c-11.83-2.63-25.86,1.82-32.85,10.51-2.59,3.22-3.81,6.52-8.54,9.86-4.99,3.52-8.04,3.13-11.83,5.26-3.24,1.82-6.67,5.7-8.42,14.49-.47,2.37,1.07,4.68,3.45,5.15.28.05.56.08.84.08,25.58.06,53.26.54,79.02.63,5.27.05,9.58-4.19,9.63-9.46,0-.23,0-.47-.02-.7-.16-4.52-1.93-8.83-4.99-12.16-8.57-8.57-6-19.15-26.28-23.66Z"/>
      <circle id="Ellipse_9" data-name="Ellipse 9" class="cls-2" cx="54.83" cy="26.05" r="6.9"/>
      <path id="Path_10" data-name="Path 10" class="cls-4" d="m33.48,50.28c0,4.9-3.97,8.87-8.87,8.87s-8.87-3.97-8.87-8.87,3.97-8.87,8.87-8.87,8.87,3.97,8.87,8.87h0"/>
      <circle id="Ellipse_10" data-name="Ellipse 10" class="cls-1" cx="24.61" cy="50.28" r="8.87"/>
      <path id="Path_11" data-name="Path 11" class="cls-4" d="m84.73,50.28c0,4.9-3.97,8.87-8.87,8.87s-8.87-3.97-8.87-8.87,3.97-8.87,8.87-8.87c4.9,0,8.87,3.97,8.87,8.87h0"/>
      <circle id="Ellipse_11" data-name="Ellipse 11" class="cls-1" cx="75.86" cy="50.28" r="8.87"/>
    </g>
  </g>
</svg>